<svg width="40" height="40" viewBox="0 0 40 40" fill="none" xmlns="http://www.w3.org/2000/svg">
    <rect width="40" height="40" fill="url(#paint0_linear)" />
    <path
        d="M19.2301 13.7905V9.7815C19.2301 9.35523 19.5701 9 20.0001 9C20.3851 9 20.7113 9.29849 20.763 9.67658L20.7701 9.7815V13.7905L25.55 13.7908C27.93 13.7908 29.8853 15.7398 29.9951 18.1704L30 18.3861V23.4254C30 25.873 28.1127 27.8822 25.768 27.995L25.56 28H14.44C12.06 28 10.1141 26.0608 10.0048 23.6213L10 23.4047V18.3758C10 15.9281 11.8779 13.9092 14.222 13.7958L14.43 13.7908H19.23V20.1932L17.63 18.541C17.33 18.2312 16.84 18.2312 16.54 18.541C16.39 18.6959 16.32 18.9024 16.32 19.1089C16.32 19.2659 16.3648 19.4295 16.4595 19.5679L16.54 19.6666L19.45 22.6819C19.59 22.8368 19.79 22.9194 20 22.9194C20.1667 22.9194 20.3333 22.862 20.4653 22.7533L20.54 22.6819L23.45 19.6666C23.75 19.3568 23.75 18.8508 23.45 18.541C23.1773 18.2594 22.7475 18.2338 22.4462 18.4642L22.36 18.541L20.77 20.1932V13.7908L19.2301 13.7905Z"
        fill="white" />
    <defs>
        <linearGradient id="paint0_linear" x1="20" y1="0" x2="20" y2="40" gradientUnits="userSpaceOnUse">
            <stop stop-color="#FD4D4D" />
            <stop offset="1" stop-color="#FF0000" />
        </linearGradient>
    </defs>
</svg>