<svg width="40" height="40" viewBox="0 0 40 40" fill="none" xmlns="http://www.w3.org/2000/svg">
    <rect width="40" height="40" fill="#2A5BD7" />
    <path
        d="M17.75 24.4993H14.75C13.5565 24.4993 12.4119 24.0252 11.568 23.1812C10.7241 22.3373 10.25 21.1927 10.25 19.9993C10.25 18.8058 10.7241 17.6612 11.568 16.8173C12.4119 15.9734 13.5565 15.4993 14.75 15.4993H17.75"
        stroke="white" stroke-width="1.6875" stroke-linecap="round" stroke-linejoin="round" />
    <path
        d="M22.25 15.4993H25.25C26.4435 15.4993 27.5881 15.9734 28.432 16.8173C29.2759 17.6612 29.75 18.8058 29.75 19.9993C29.75 21.1927 29.2759 22.3373 28.432 23.1812C27.5881 24.0252 26.4435 24.4993 25.25 24.4993H22.25"
        stroke="white" stroke-width="1.6875" stroke-linecap="round" stroke-linejoin="round" />
    <path d="M15.6523 19.9987H24.4377" stroke="white" stroke-width="1.6875" stroke-linecap="round"
        stroke-linejoin="round" />
</svg>