<svg width="40" height="40" viewBox="0 0 40 40" fill="none" xmlns="http://www.w3.org/2000/svg">
    <g style="mix-blend-mode:difference">
        <rect width="40" height="40" fill="#7D4698" />
        <path
            d="M31.375 16.0625H30.7789C30.5028 15.8994 30.2093 15.7677 29.9039 15.6698C28.9414 15.3516 27.6705 15.1875 26.125 15.1875C24.5795 15.1875 23.3086 15.3516 22.3483 15.6698C21.5794 15.9263 21.2409 16.2091 21.1315 16.319C20.7784 16.1501 20.3919 16.0625 20.0005 16.0625C19.6091 16.0625 19.2227 16.1501 18.8696 16.319C18.7602 16.2096 18.4217 15.9263 17.6528 15.6698C16.6914 15.3516 15.4205 15.1875 13.875 15.1875C12.3295 15.1875 11.0586 15.3516 10.0983 15.6698C9.7929 15.7677 9.49941 15.8994 9.22328 16.0625H8.625C8.39294 16.0625 8.17038 16.1547 8.00628 16.3188C7.84219 16.4829 7.75 16.7054 7.75 16.9375C7.75 17.1696 7.84219 17.3921 8.00628 17.5562C8.17038 17.7203 8.39294 17.8125 8.625 17.8125H8.6343C8.68898 20.2986 8.98648 21.7927 9.62469 22.8563C10.0245 23.5431 10.6373 24.0807 11.3703 24.3876C12.0391 24.6741 12.8589 24.8136 13.875 24.8136C15.1957 24.8136 17.0731 24.6107 18.1253 22.8574C18.6547 21.9748 18.9505 20.7962 19.0665 19.0009C19.105 18.9009 19.1248 18.7947 19.125 18.6875C19.125 18.4554 19.2172 18.2329 19.3813 18.0688C19.5454 17.9047 19.7679 17.8125 20 17.8125C20.2321 17.8125 20.4546 17.9047 20.6187 18.0688C20.7828 18.2329 20.875 18.4554 20.875 18.6875C20.8753 18.7943 20.8951 18.9001 20.9335 18.9998C21.0494 20.7952 21.3453 21.9737 21.8747 22.8563C22.2745 23.5431 22.8873 24.0807 23.6203 24.3876C24.2891 24.6741 25.1089 24.8136 26.125 24.8136C27.4457 24.8136 29.3231 24.6107 30.3753 22.8574C31.0135 21.7937 31.3121 20.2997 31.3657 17.8136H31.375C31.6071 17.8136 31.8296 17.7214 31.9937 17.5573C32.1578 17.3932 32.25 17.1707 32.25 16.9386C32.25 16.7065 32.1578 16.484 31.9937 16.3199C31.8296 16.1558 31.6071 16.0636 31.375 16.0636V16.0625Z"
            fill="white" />
    </g>
</svg>