<svg width="40" height="40" viewBox="0 0 40 40" fill="none" xmlns="http://www.w3.org/2000/svg">
    <rect width="40" height="40" fill="#FFDC00" />
    <mask id="mask0" mask-type="alpha" maskUnits="userSpaceOnUse" x="8" y="6" width="25" height="29">
        <path fill-rule="evenodd" clip-rule="evenodd" d="M8 6H32.0855V34.4656H8V6Z" fill="white" />
    </mask>
    <g mask="url(#mask0)">
        <path fill-rule="evenodd" clip-rule="evenodd"
            d="M20.0431 8.18967C14.6099 8.18967 10.1897 12.6522 10.1897 18.1351C10.1897 25.1114 18.3994 31.9081 20.0431 32.2701C21.6868 31.9066 29.8966 25.1099 29.8966 18.1351C29.8966 12.6522 25.4764 8.18967 20.0431 8.18967ZM20.0431 34.4656C17.4243 34.4656 8 26.3609 8 18.1351C8 11.4435 13.4026 6 20.0431 6C26.6836 6 32.0863 11.4435 32.0863 18.1351C32.0863 26.3609 22.662 34.4656 20.0431 34.4656Z"
            fill="white" />
    </g>
    <path
        d="M25.3925 15.0263C25.41 15.0161 25.4245 15.0014 25.4346 14.9838C25.4447 14.9663 25.4501 14.9463 25.4501 14.926C25.4501 14.9058 25.4447 14.8858 25.4346 14.8682C25.4245 14.8506 25.41 14.836 25.3925 14.8258L20.9606 12.2509C20.677 12.0866 20.3551 12 20.0273 12C19.6996 12 19.3776 12.0866 19.094 12.2509L14.663 14.8258C14.6455 14.836 14.631 14.8506 14.6209 14.8682C14.6108 14.8858 14.6055 14.9058 14.6055 14.926C14.6055 14.9463 14.6108 14.9663 14.6209 14.9838C14.631 15.0014 14.6455 15.0161 14.663 15.0263L19.9694 18.1478C19.9873 18.1583 20.0076 18.1639 20.0283 18.1639C20.0491 18.1639 20.0694 18.1583 20.0872 18.1478L25.3925 15.0263Z"
        fill="white" />
    <path
        d="M14.1741 15.8155C14.1564 15.8053 14.1363 15.7999 14.1159 15.7999C14.0954 15.8 14.0754 15.8054 14.0577 15.8157C14.04 15.8259 14.0254 15.8407 14.0153 15.8584C14.0051 15.8762 13.9999 15.8963 14 15.9167V20.9623C14.0004 21.2054 14.0645 21.4442 14.1859 21.6549C14.3072 21.8656 14.4816 22.0409 14.6917 22.1632L19.3969 24.9844C19.4146 24.9946 19.4346 25 19.4549 25C19.4753 25 19.4953 24.9946 19.5129 24.9845C19.5306 24.9743 19.5452 24.9597 19.5554 24.942C19.5656 24.9244 19.571 24.9044 19.571 24.8841V19.0301C19.571 19.0098 19.5656 18.9898 19.5554 18.9722C19.5453 18.9545 19.5306 18.9399 19.513 18.9297L14.1741 15.8155Z"
        fill="white" />
    <path
        d="M20.5 19.0501V24.8823C20.5 24.9027 20.5054 24.9227 20.5156 24.9403C20.5258 24.9579 20.5404 24.9725 20.5581 24.9827C20.5757 24.9929 20.5957 24.9982 20.6161 24.9982C20.6365 24.9982 20.6565 24.9929 20.6741 24.9827L25.379 22.1615C25.5889 22.0393 25.7633 21.8643 25.8847 21.6538C26.0061 21.4434 26.0703 21.2049 26.071 20.962V15.9164C26.0709 15.8961 26.0655 15.8761 26.0553 15.8585C26.0451 15.841 26.0304 15.8264 26.0128 15.8162C25.9952 15.8061 25.9752 15.8008 25.9549 15.8008C25.9345 15.8008 25.9145 15.8062 25.8969 15.8163L20.558 18.95C20.5404 18.9602 20.5258 18.9748 20.5157 18.9923C20.5055 19.0099 20.5001 19.0298 20.5 19.0501Z"
        fill="white" />
</svg>