<svg width="40" height="40" viewBox="0 0 40 40" fill="none" xmlns="http://www.w3.org/2000/svg">
    <rect width="40" height="40" fill="white" />
    <path
        d="M20.2614 12.748C20.1916 12.6812 20.0988 12.644 20.0022 12.644C19.9056 12.644 19.8128 12.6812 19.743 12.748L11.1133 20.9919C11.0766 21.027 11.0475 21.0691 11.0276 21.1157C11.0077 21.1624 10.9974 21.2126 10.9975 21.2633L10.9961 29.0005C10.9961 29.3983 11.1541 29.7798 11.4354 30.0611C11.7167 30.3425 12.0983 30.5005 12.4961 30.5005H17.0008C17.1997 30.5005 17.3905 30.4215 17.5311 30.2808C17.6718 30.1402 17.7508 29.9494 17.7508 29.7505V23.3755C17.7508 23.276 17.7903 23.1807 17.8606 23.1103C17.9309 23.04 18.0263 23.0005 18.1258 23.0005H21.8758C21.9752 23.0005 22.0706 23.04 22.1409 23.1103C22.2113 23.1807 22.2508 23.276 22.2508 23.3755V29.7505C22.2508 29.9494 22.3298 30.1402 22.4704 30.2808C22.6111 30.4215 22.8019 30.5005 23.0008 30.5005H27.5036C27.9014 30.5005 28.2829 30.3425 28.5642 30.0611C28.8455 29.7798 29.0036 29.3983 29.0036 29.0005V21.2633C29.0036 21.2126 28.9934 21.1624 28.9735 21.1157C28.9536 21.0691 28.9245 21.027 28.8878 20.9919L20.2614 12.748Z"
        fill="url(#paint0_linear)" />
    <path
        d="M31.0114 19.4459L27.5052 16.0915V11.0014C27.5052 10.8025 27.4261 10.6117 27.2855 10.471C27.1448 10.3304 26.9541 10.2514 26.7552 10.2514H24.5052C24.3063 10.2514 24.1155 10.3304 23.9748 10.471C23.8342 10.6117 23.7552 10.8025 23.7552 11.0014V12.5014L21.0402 9.90544C20.7861 9.64856 20.4083 9.50137 20 9.50137C19.5931 9.50137 19.2163 9.64856 18.9622 9.9059L8.99189 19.445C8.70033 19.7262 8.66377 20.1889 8.92908 20.4936C8.9957 20.5705 9.07728 20.633 9.16884 20.6774C9.26041 20.7218 9.36005 20.7471 9.46169 20.7517C9.56334 20.7563 9.66487 20.7403 9.7601 20.7044C9.85533 20.6686 9.94228 20.6137 10.0156 20.5432L19.7422 11.2489C19.812 11.1821 19.9048 11.1449 20.0014 11.1449C20.098 11.1449 20.1908 11.1821 20.2606 11.2489L29.9881 20.5432C30.1314 20.6807 30.3234 20.7556 30.5218 20.7518C30.7203 20.7479 30.9092 20.6655 31.047 20.5226C31.3348 20.2245 31.3109 19.7323 31.0114 19.4459Z"
        fill="url(#paint1_linear)" />
    <defs>
        <linearGradient id="paint0_linear" x1="19.9998" y1="12.644" x2="19.9998" y2="30.5005"
            gradientUnits="userSpaceOnUse">
            <stop stop-color="#F5C348" />
            <stop offset="1" stop-color="#F7C246" />
        </linearGradient>
        <linearGradient id="paint1_linear" x1="20" y1="9.50137" x2="20" y2="20.7525" gradientUnits="userSpaceOnUse">
            <stop stop-color="#F5C348" />
            <stop offset="1" stop-color="#F7C246" />
        </linearGradient>
    </defs>
</svg>