<svg width="40" height="40" viewBox="0 0 40 40" fill="none" xmlns="http://www.w3.org/2000/svg">
    <rect width="40" height="40" fill="#E20074" />
    <path
        d="M27.6954 13.359C25.5699 11.2462 22.7066 10.0422 19.71 10.0011C16.7134 9.96001 13.8181 11.0851 11.6356 13.1388C9.45299 15.1925 8.15398 18.014 8.01283 21.0076C7.87168 24.0011 8.89944 26.9323 10.8791 29.1823L10.8878 29.1919C10.9036 29.2088 10.9186 29.2261 10.9359 29.2425C10.9715 29.2829 11.0119 29.3286 11.0596 29.3763C11.2465 29.5749 11.4723 29.7328 11.723 29.8401C11.9737 29.9474 12.2439 30.0018 12.5166 30C12.7893 29.9981 13.0587 29.9399 13.3079 29.8291C13.5571 29.7183 13.7807 29.5572 13.9648 29.356C14.6732 28.5862 15.5335 27.9717 16.4915 27.5514C17.4494 27.131 18.4842 26.914 19.5303 26.914C20.5764 26.914 21.6112 27.131 22.5691 27.5514C23.5271 27.9717 24.3874 28.5862 25.0958 29.356C25.2812 29.5583 25.5067 29.7199 25.7578 29.8305C26.0089 29.9411 26.2803 29.9983 26.5547 29.9986C26.8292 29.9989 27.1006 29.9422 27.352 29.832C27.6034 29.7219 27.8291 29.5608 28.015 29.3589L28.1695 29.1905L28.1781 29.1808C30.1287 26.9783 31.165 24.1142 31.0756 21.1735C30.9861 18.2327 29.7776 15.437 27.6968 13.357L27.6954 13.359ZM18.7573 13.8282C18.7573 13.624 18.8384 13.4281 18.9829 13.2837C19.1273 13.1393 19.3232 13.0581 19.5274 13.0581C19.7317 13.0581 19.9275 13.1393 20.072 13.2837C20.2164 13.4281 20.2975 13.624 20.2975 13.8282V15.3685C20.2975 15.5727 20.2164 15.7686 20.072 15.913C19.9275 16.0574 19.7317 16.1386 19.5274 16.1386C19.3232 16.1386 19.1273 16.0574 18.9829 15.913C18.8384 15.7686 18.7573 15.5727 18.7573 15.3685V13.8282ZM13.3665 22.2994H11.8263C11.6221 22.2994 11.4262 22.2183 11.2818 22.0739C11.1373 21.9295 11.0562 21.7336 11.0562 21.5293C11.0562 21.3251 11.1373 21.1292 11.2818 20.9848C11.4262 20.8404 11.6221 20.7592 11.8263 20.7592H13.3665C13.5708 20.7592 13.7667 20.8404 13.9111 20.9848C14.0555 21.1292 14.1366 21.3251 14.1366 21.5293C14.1366 21.7336 14.0555 21.9295 13.9111 22.0739C13.7667 22.2183 13.5708 22.2994 13.3665 22.2994ZM15.7154 17.7173C15.571 17.8616 15.3752 17.9427 15.171 17.9427C14.9668 17.9427 14.771 17.8616 14.6266 17.7173L13.5374 16.6286C13.393 16.4841 13.3118 16.2882 13.3118 16.0839C13.3118 15.8797 13.393 15.6838 13.5374 15.5393C13.6818 15.3949 13.8777 15.3137 14.082 15.3137C14.2863 15.3137 14.4822 15.3949 14.6266 15.5393L15.7154 16.6286C15.8597 16.773 15.9408 16.9688 15.9408 17.1729C15.9408 17.3771 15.8597 17.5729 15.7154 17.7173ZM22.9014 18.8291L20.6152 22.4631C20.5217 22.5927 20.4079 22.7065 20.2783 22.8C19.9653 23.0183 19.5789 23.1044 19.2029 23.0396C18.8268 22.9748 18.4916 22.7643 18.2698 22.4538C18.048 22.1433 17.9576 21.7578 18.0182 21.3811C18.0789 21.0044 18.2856 20.6668 18.5937 20.4416L22.2276 18.1553C22.3102 18.0977 22.4085 18.0668 22.5092 18.0668C22.6099 18.0668 22.7081 18.0977 22.7907 18.1553C22.8945 18.2302 22.9644 18.3431 22.9851 18.4694C23.0059 18.5956 22.9758 18.725 22.9014 18.8291ZM24.4282 17.7173C24.2826 17.8556 24.0887 17.9316 23.8879 17.929C23.6871 17.9265 23.4952 17.8455 23.3532 17.7035C23.2112 17.5615 23.1303 17.3697 23.1277 17.1688C23.1251 16.968 23.2011 16.7742 23.3394 16.6286L24.4282 15.5393C24.5726 15.3949 24.7685 15.3137 24.9728 15.3137C25.1771 15.3137 25.373 15.3949 25.5174 15.5393C25.6619 15.6838 25.743 15.8797 25.743 16.0839C25.743 16.2882 25.6619 16.4841 25.5174 16.6286L24.4282 17.7173ZM27.2285 22.2994H25.6883C25.484 22.2994 25.2882 22.2183 25.1437 22.0739C24.9993 21.9295 24.9182 21.7336 24.9182 21.5293C24.9182 21.3251 24.9993 21.1292 25.1437 20.9848C25.2882 20.8404 25.484 20.7592 25.6883 20.7592H27.2285C27.4327 20.7592 27.6286 20.8404 27.773 20.9848C27.9175 21.1292 27.9986 21.3251 27.9986 21.5293C27.9986 21.7336 27.9175 21.9295 27.773 22.0739C27.6286 22.2183 27.4327 22.2994 27.2285 22.2994Z"
        fill="white" />
</svg>