<svg width="80" height="80" viewBox="0 0 80 80" fill="none" xmlns="http://www.w3.org/2000/svg">
    <rect width="80" height="80" rx="24.6569" fill="#121212" />
    <path
        d="M60.3125 52.5391C59.8751 52.5388 59.4425 52.4467 59.043 52.2686C58.95 52.2274 58.8614 52.177 58.7783 52.1182L50.7012 46.4327C50.2915 46.1443 49.9572 45.7617 49.7264 45.3171C49.4956 44.8725 49.3751 44.379 49.375 43.878V36.1241C49.3751 35.6232 49.4956 35.1296 49.7264 34.685C49.9572 34.2404 50.2915 33.8578 50.7012 33.5694L58.7783 27.8839C58.8614 27.8251 58.95 27.7748 59.043 27.7335C59.5187 27.522 60.0398 27.4327 60.5589 27.4737C61.078 27.5148 61.5786 27.6849 62.0152 27.9686C62.4518 28.2523 62.8106 28.6406 63.059 29.0982C63.3074 29.5558 63.4375 30.0683 63.4375 30.589V49.4132C63.4375 50.242 63.1083 51.0368 62.5222 51.6229C61.9362 52.2089 61.1413 52.5382 60.3125 52.5382V52.5391Z"
        fill="#D7B350" />
    <path
        d="M41.1719 54.0628H23.2031C21.4425 54.061 19.7545 53.3608 18.5095 52.1158C17.2645 50.8708 16.5643 49.1828 16.5625 47.4222V32.5784C16.5643 30.8178 17.2645 29.1298 18.5095 27.8848C19.7545 26.6398 21.4425 25.9396 23.2031 25.9378H41.2187C42.9669 25.9399 44.6428 26.6352 45.8789 27.8714C47.1151 29.1075 47.8104 30.7834 47.8125 32.5316V47.4222C47.8107 49.1828 47.1105 50.8708 45.8655 52.1158C44.6205 53.3608 42.9325 54.061 41.1719 54.0628V54.0628Z"
        fill="#D7B350" />
</svg>