<svg width="16" height="16" viewBox="0 0 16 16" fill="none" xmlns="http://www.w3.org/2000/svg">
    <path
        d="M13.2207 2.70117L13.6426 2.26758C13.8418 2.0625 13.8477 1.77539 13.6484 1.58203L13.5137 1.44141C13.332 1.25977 13.0391 1.2832 12.8516 1.4707L12.4238 1.89258L13.2207 2.70117ZM6.47656 8.79492L7.61914 8.29688L12.7871 3.12891L11.9844 2.33789L6.82227 7.50586L6.29492 8.60742C6.24805 8.70703 6.36523 8.8418 6.47656 8.79492ZM4.04492 13.1543H10.9238C11.9727 13.1543 12.5879 12.5449 12.5879 11.3379V4.81641L11.6445 5.75977V11.291C11.6445 11.9004 11.3105 12.2109 10.9062 12.2109H4.05664C3.4707 12.2109 3.14844 11.9004 3.14844 11.291V4.64062C3.14844 4.03125 3.4707 3.71484 4.05664 3.71484H9.125L10.0684 2.77148H4.04492C2.82031 2.77148 2.20508 3.38086 2.20508 4.58789V11.3379C2.20508 12.5508 2.82031 13.1543 4.04492 13.1543Z"
        fill="white" fill-opacity="0.6" />
</svg>