<svg width="15" height="15" viewBox="0 0 15 15" fill="none" xmlns="http://www.w3.org/2000/svg">
    <path fill-rule="evenodd" clip-rule="evenodd"
        d="M0.9375 8.44629C0.9375 4.79004 3.84375 1.88379 7.5 1.88379C11.1563 1.88379 14.0625 4.79004 14.0625 8.44629H13.125C13.125 5.35254 10.5937 2.82129 7.5 2.82129C4.40625 2.82129 1.875 5.35254 1.875 8.44629H0.9375ZM4.6875 8.44629C4.6875 6.85254 5.90625 5.63379 7.5 5.63379C9.09375 5.63379 10.3125 6.85254 10.3125 8.44629C10.3125 10.04 9.09375 11.2588 7.5 11.2588C5.90625 11.2588 4.6875 10.04 4.6875 8.44629ZM5.625 8.44629C5.625 9.47754 6.46875 10.3213 7.5 10.3213C8.53125 10.3213 9.375 9.47754 9.375 8.44629C9.375 7.41504 8.53125 6.57129 7.5 6.57129C6.46875 6.57129 5.625 7.41504 5.625 8.44629Z"
        fill="currentColor" />
</svg>