<svg width="15" height="15" viewBox="0 0 15 15" fill="none" xmlns="http://www.w3.org/2000/svg">
    <path fill-rule="evenodd" clip-rule="evenodd"
        d="M7.49219 1.88086C6.08594 1.88086 4.86719 2.25586 3.83594 3.00586L4.58594 3.66211C5.42969 3.09961 6.36719 2.81836 7.49219 2.81836C10.5859 2.81836 13.1172 5.34961 13.1172 8.44336H14.0547C14.0547 4.78711 11.1484 1.88086 7.49219 1.88086ZM0.929688 2.81836L2.42969 4.22461C1.49219 5.34961 0.929688 6.84961 0.929688 8.44336H1.86719C1.86719 7.03711 2.33594 5.81836 3.17969 4.88086L5.24219 6.75586C4.86719 7.22461 4.67969 7.78711 4.67969 8.44336C4.67969 10.0371 5.89844 11.2559 7.49219 11.2559C8.24219 11.2559 8.89844 10.9746 9.36719 10.5059L12.1797 13.1309L12.8359 12.4746L1.58594 2.16211L0.929688 2.81836ZM5.89844 7.41211L8.61719 9.94336C8.33594 10.1309 7.96094 10.3184 7.49219 10.3184C6.46094 10.3184 5.61719 9.47461 5.61719 8.44336C5.61719 8.06836 5.71094 7.69336 5.89844 7.41211V7.41211ZM10.3047 8.91211L9.36719 8.06836C9.17969 7.31836 8.52344 6.66211 7.67969 6.56836L6.74219 5.72461C7.02344 5.63086 7.21094 5.63086 7.49219 5.63086C9.08594 5.63086 10.3047 6.84961 10.3047 8.44336V8.91211Z"
        fill="currentColor" />
</svg>