<?xml version="1.0" standalone="no"?>
<!DOCTYPE svg PUBLIC "-//W3C//DTD SVG 20010904//EN"
 "http://www.w3.org/TR/2001/REC-SVG-20010904/DTD/svg10.dtd">
<svg version="1.0" xmlns="http://www.w3.org/2000/svg"
 width="1169.000000pt" height="1169.000000pt" viewBox="0 0 1169.000000 1169.000000"
 preserveAspectRatio="xMidYMid meet">
<metadata>
Created by potrace 1.14, written by Peter Selinger 2001-2017
</metadata>
<g transform="translate(0.000000,1169.000000) scale(0.100000,-0.100000)"
fill="#000000" stroke="none">
<path d="M3119 11686 c-2 -2 -39 -6 -82 -10 -131 -10 -268 -32 -446 -70 -206
-44 -571 -174 -731 -260 -14 -7 -61 -33 -105 -56 -595 -320 -1098 -837 -1403
-1446 -84 -168 -218 -519 -237 -621 -2 -14 -9 -39 -14 -56 -13 -41 -57 -265
-66 -337 -4 -30 -9 -64 -11 -74 -2 -10 -7 -58 -11 -105 -11 -114 -10 -5514 0
-5611 9 -83 11 -102 32 -247 6 -37 19 -111 31 -163 3 -14 7 -36 10 -50 24
-118 109 -376 175 -536 96 -230 260 -517 400 -699 22 -27 42 -55 46 -60 92
-122 310 -352 443 -467 363 -316 801 -554 1265 -688 108 -31 303 -75 375 -85
25 -3 72 -10 105 -15 33 -5 96 -13 140 -17 104 -10 5514 -10 5620 0 44 4 91 9
105 11 40 7 172 27 210 33 68 10 348 83 446 117 398 138 732 324 1068 596 162
131 384 364 517 540 35 47 66 87 69 90 27 23 195 302 263 436 141 279 277 691
311 949 3 17 7 44 10 60 5 31 9 61 23 195 4 41 8 1317 8 2835 l0 2760 -22 145
c-12 80 -24 159 -28 175 -5 26 -24 121 -31 150 -78 360 -259 775 -477 1100
-69 102 -176 244 -245 324 -83 97 -285 295 -377 371 -49 41 -92 77 -95 80 -15
15 -212 154 -248 175 -9 6 -19 13 -22 16 -10 11 -238 138 -327 182 -318 156
-724 276 -1053 312 -30 3 -71 8 -90 12 -36 7 -5544 16 -5551 9z"/>
</g>
</svg>
