<svg width="168" height="168" viewBox="0 0 168 168" fill="none" xmlns="http://www.w3.org/2000/svg">
    <rect x="21" y="40" width="126" height="97" fill="black" />
    <path
        d="M83.996 0.276978C37.747 0.276978 0.252991 37.77 0.252991 84.019C0.252991 130.27 37.747 167.76 83.996 167.76C130.25 167.76 167.74 130.27 167.74 84.019C167.74 37.773 130.25 0.280978 83.995 0.280978L83.996 0.276978V0.276978ZM122.4 121.057C120.9 123.517 117.68 124.297 115.22 122.787C95.558 110.777 70.806 108.057 41.656 114.717C38.847 115.357 36.047 113.597 35.407 110.787C34.764 107.977 36.517 105.177 39.333 104.537C71.233 97.246 98.596 100.387 120.67 113.877C123.13 115.387 123.91 118.597 122.4 121.057V121.057ZM132.65 98.252C130.76 101.327 126.74 102.297 123.67 100.407C101.16 86.568 66.847 82.561 40.222 90.643C36.769 91.686 33.122 89.74 32.074 86.293C31.034 82.84 32.981 79.2 36.428 78.15C66.841 68.922 104.65 73.392 130.5 89.277C133.57 91.167 134.54 95.187 132.65 98.253V98.252ZM133.53 74.508C106.54 58.477 62.01 57.003 36.241 64.824C32.103 66.079 27.727 63.743 26.473 59.605C25.219 55.465 27.553 51.092 31.694 49.834C61.275 40.854 110.45 42.589 141.524 61.036C145.254 63.245 146.474 68.052 144.264 71.769C142.064 75.491 137.244 76.718 133.534 74.508H133.53Z"
        fill="#1ED760" />
</svg>