<svg width="40" height="40" viewBox="0 0 40 40" fill="none" xmlns="http://www.w3.org/2000/svg">
    <rect width="40" height="40" fill="white" />
    <path
        d="M10.9085 19.162C11.3565 19.1153 11.6972 18.98 11.9305 18.756C12.1732 18.532 12.2945 18.238 12.2945 17.874C12.2945 17.538 12.2572 16.922 12.1825 16.026C12.0985 15.186 12.0565 14.514 12.0565 14.01C12.0565 13.3473 12.2479 12.8293 12.6305 12.456C13.0225 12.0827 13.5359 11.896 14.1705 11.896H15.1085V13.282H14.4925C14.1939 13.282 13.9699 13.352 13.8205 13.492C13.6805 13.6227 13.6105 13.8373 13.6105 14.136C13.6105 14.36 13.6245 14.6587 13.6525 15.032C13.6805 15.4053 13.6992 15.6713 13.7085 15.83C13.7925 16.6887 13.8345 17.3887 13.8345 17.93C13.8345 18.406 13.7132 18.8027 13.4705 19.12C13.2372 19.4373 12.8732 19.6473 12.3785 19.75V19.778C12.8732 19.8807 13.2372 20.0907 13.4705 20.408C13.7132 20.7253 13.8345 21.122 13.8345 21.598C13.8345 22.1393 13.7925 22.8393 13.7085 23.698C13.6992 23.8567 13.6805 24.1227 13.6525 24.496C13.6245 24.8693 13.6105 25.168 13.6105 25.392C13.6105 25.6907 13.6805 25.9053 13.8205 26.036C13.9699 26.176 14.1939 26.246 14.4925 26.246H15.1085V27.632H14.1705C13.5359 27.632 13.0225 27.4453 12.6305 27.072C12.2479 26.6987 12.0565 26.1807 12.0565 25.518C12.0565 25.014 12.0985 24.342 12.1825 23.502C12.2572 22.606 12.2945 21.99 12.2945 21.654C12.2945 21.29 12.1732 20.996 11.9305 20.772C11.6972 20.548 11.3565 20.4127 10.9085 20.366V19.162ZM29.0967 20.366C28.6487 20.4127 28.3034 20.548 28.0607 20.772C27.8274 20.996 27.7107 21.29 27.7107 21.654C27.7107 21.99 27.7481 22.606 27.8227 23.502C27.9067 24.342 27.9487 25.014 27.9487 25.518C27.9487 26.1807 27.7527 26.6987 27.3607 27.072C26.9781 27.4453 26.4694 27.632 25.8347 27.632H24.8967V26.246H25.5127C25.8114 26.246 26.0307 26.176 26.1707 26.036C26.3201 25.9053 26.3947 25.6907 26.3947 25.392C26.3947 25.168 26.3807 24.8693 26.3527 24.496C26.3247 24.1227 26.3061 23.8567 26.2967 23.698C26.2127 22.8393 26.1707 22.1393 26.1707 21.598C26.1707 21.122 26.2874 20.7253 26.5207 20.408C26.7634 20.0907 27.1321 19.8807 27.6267 19.778V19.75C27.1321 19.6473 26.7634 19.4373 26.5207 19.12C26.2874 18.8027 26.1707 18.406 26.1707 17.93C26.1707 17.3887 26.2127 16.6887 26.2967 15.83C26.3061 15.6713 26.3247 15.4053 26.3527 15.032C26.3807 14.6587 26.3947 14.36 26.3947 14.136C26.3947 13.8373 26.3201 13.6227 26.1707 13.492C26.0307 13.352 25.8114 13.282 25.5127 13.282H24.8967V11.896H25.8347C26.4694 11.896 26.9781 12.0827 27.3607 12.456C27.7527 12.8293 27.9487 13.3473 27.9487 14.01C27.9487 14.514 27.9067 15.186 27.8227 16.026C27.7481 16.922 27.7107 17.538 27.7107 17.874C27.7107 18.238 27.8274 18.532 28.0607 18.756C28.3034 18.98 28.6487 19.1153 29.0967 19.162V20.366Z"
        fill="black" />
</svg>