<svg width="40" height="40" viewBox="0 0 40 40" fill="none" xmlns="http://www.w3.org/2000/svg">
    <rect width="40" height="40" fill="#121212" />
    <path
        d="M30.1562 26.2696C29.9375 26.2694 29.7213 26.2233 29.5215 26.1343C29.475 26.1137 29.4307 26.0885 29.3892 26.0591L25.3506 23.2163C25.1458 23.0722 24.9786 22.8809 24.8632 22.6586C24.7478 22.4363 24.6876 22.1895 24.6875 21.939V18.0621C24.6876 17.8116 24.7478 17.5648 24.8632 17.3425C24.9786 17.1202 25.1458 16.9289 25.3506 16.7847L29.3892 13.9419C29.4307 13.9126 29.475 13.8874 29.5215 13.8667C29.7594 13.761 30.0199 13.7163 30.2795 13.7369C30.539 13.7574 30.7893 13.8424 31.0076 13.9843C31.2259 14.1261 31.4053 14.3203 31.5295 14.5491C31.6537 14.7779 31.7187 15.0341 31.7187 15.2945V24.7066C31.7187 25.121 31.5541 25.5184 31.2611 25.8114C30.9681 26.1045 30.5706 26.2691 30.1562 26.2691V26.2696Z"
        fill="#D7B350" />
    <path
        d="M20.5859 27.0314H11.6016C10.7212 27.0305 9.87723 26.6804 9.25475 26.0579C8.63226 25.4354 8.28215 24.5914 8.28125 23.7111V16.2892C8.28215 15.4089 8.63226 14.5649 9.25475 13.9424C9.87723 13.3199 10.7212 12.9698 11.6016 12.9689H20.6094C21.4834 12.97 22.3214 13.3176 22.9395 13.9357C23.5575 14.5538 23.9052 15.3917 23.9062 16.2658V23.7111C23.9053 24.5914 23.5552 25.4354 22.9327 26.0579C22.3103 26.6804 21.4663 27.0305 20.5859 27.0314V27.0314Z"
        fill="#D7B350" />
</svg>