<svg width="40" height="40" viewBox="0 0 40 40" fill="none" xmlns="http://www.w3.org/2000/svg">
    <rect width="40" height="40" rx="12.3285" fill="url(#paint0_radial)" />
    <path
        d="M24.7255 22.8985H23.7633L23.4223 22.5697C24.8839 20.8645 25.639 18.5382 25.2249 16.0657C24.6524 12.6797 21.8267 9.97577 18.4164 9.56166C13.2643 8.92831 8.92831 13.2643 9.56166 18.4164C9.97577 21.8267 12.6797 24.6524 16.0657 25.2249C18.5382 25.639 20.8645 24.8839 22.5697 23.4223L22.8985 23.7633V24.7255L28.075 29.9019C28.5743 30.4013 29.3904 30.4013 29.8898 29.9019C30.3891 29.4026 30.3891 28.5865 29.8898 28.0871L24.7255 22.8985ZM17.4176 22.8985C14.3849 22.8985 11.9367 20.4504 11.9367 17.4176C11.9367 14.3849 14.3849 11.9367 17.4176 11.9367C20.4504 11.9367 22.8985 14.3849 22.8985 17.4176C22.8985 20.4504 20.4504 22.8985 17.4176 22.8985Z"
        fill="#6E5263" />
    <defs>
        <radialGradient id="paint0_radial" cx="0" cy="0" r="1" gradientUnits="userSpaceOnUse"
            gradientTransform="rotate(45) scale(56.5685)">
            <stop offset="0.0416667" stop-color="#F2F2F3" />
            <stop offset="1" stop-color="#E4E6E9" />
        </radialGradient>
    </defs>
</svg>