<svg width="40" height="40" viewBox="0 0 40 40" fill="none" xmlns="http://www.w3.org/2000/svg">
    <rect width="40" height="40" fill="url(#paint0_linear)" />
    <g clip-path="url(#clip0)">
        <path
            d="M25.625 28.2501H13.4375C11.9202 28.2501 10.6142 27.8484 9.65984 27.089C8.57375 26.2241 8 24.9402 8 23.3751C8 20.6765 9.96875 19.1291 12.1044 18.6524C12.2449 18.6204 12.3731 18.5486 12.4739 18.4456C12.5746 18.3426 12.6436 18.2128 12.6725 18.0716C13.0325 16.3523 13.8186 14.8771 14.9778 13.7591C16.327 12.462 18.1284 11.7414 20 11.7501C21.6641 11.7501 23.1987 12.298 24.4381 13.3345C25.2853 14.049 25.9593 14.9466 26.4092 15.9594C26.4576 16.0682 26.5312 16.1638 26.6239 16.2385C26.7165 16.3131 26.8257 16.3647 26.9422 16.3888C28.2078 16.6518 29.3361 17.2012 30.185 17.9755C31.3723 19.0569 32 20.5354 32 22.2501C32 23.9376 31.3259 25.4788 30.102 26.5902C28.9231 27.6608 27.3331 28.2501 25.625 28.2501Z"
            fill="white" />
    </g>
    <defs>
        <linearGradient id="paint0_linear" x1="20" y1="0" x2="20" y2="40" gradientUnits="userSpaceOnUse">
            <stop stop-color="#7AD3FF" />
            <stop offset="1" stop-color="#4FBAF0" />
        </linearGradient>
        <clipPath id="clip0">
            <rect width="24" height="24" fill="white" transform="translate(8 8)" />
        </clipPath>
    </defs>
</svg>